<?xml version="1.0" encoding="utf-8"?>
<!-- Generator: Adobe Illustrator 27.2.0, SVG Export Plug-In . SVG Version: 6.00 Build 0)  -->
<svg version="1.1" baseProfile="tiny" id="Layer_1" xmlns="http://www.w3.org/2000/svg" xmlns:xlink="http://www.w3.org/1999/xlink"
	 x="0px" y="0px" viewBox="0 0 1366 768" overflow="visible" xml:space="preserve">
<path fill="#FFFFFF" d="M830.02,192.03L197.94,422.08c-19.65,7.15-19.22,14.18-17.44,19.08c1.78,4.9,4.25,5.83,23.9-1.32
	l632.08-230.05c19.65-7.15,25.93-13.94,24.14-18.84C858.84,186.04,849.67,184.88,830.02,192.03z"/>
<path fill="#FFFFFF" d="M449.61,300.92l-243.83,88.74c-7.58,2.76-14.67,2.02-13.28,5.84s10.74,10.77,18.32,8.01l243.83-88.74
	c7.58-2.76,12.24-14.44,10.85-18.27S457.19,298.16,449.61,300.92z"/>
<path fill="#FFFFFF" d="M559.51,322.99L251.11,435.24c-9.59,3.49-15.72,10.82-13.7,16.38s11.44,7.24,21.02,3.75l308.41-112.25
	c9.59-3.49,15.72-10.82,13.7-16.38S569.1,319.5,559.51,322.99z"/>
<path fill="#FF0000" d="M251.57,341.53l8.46-37.62c0.26-1.17-2.82-5.17-6.77-6.06c-3.95-0.89-7.27,1.67-7.54,2.84l-8.46,37.62
	c-0.26,1.17,3.12,5.33,7.07,6.22C248.28,345.42,251.3,342.7,251.57,341.53z"/>
<path fill="#FF0000" d="M354.37,230.65l-21.98-36.94c-0.68-1.15-6.6-1.82-10.84,0.71s-5.21,7.29-4.53,8.44L339,239.8
	c0.68,1.15,6.99,1.69,11.24-0.83C354.48,236.44,355.05,231.8,354.37,230.65z"/>
<path fill="#FF0000" d="M298.84,280.58c-4.69-4.69-2.35-14.62,5.22-22.19c7.57-7.57,22.11-5.3,26.8-0.61
	c4.69,4.69-2.26,10.02-9.82,17.58C313.47,282.93,303.53,285.27,298.84,280.58z"/>
<polygon fill="#FF0000" points="416.14,200.64 407.8,202.87 404.51,194.88 409.57,184.66 417.92,182.43 421.2,190.42 "/>
<polygon fill="#FF0000" points="367.09,321.02 347.13,325.27 333.47,310.11 339.77,290.7 359.73,286.45 373.39,301.61 "/>
<g>
	<path fill="#FFFFFF" d="M580.87,419.48v-38.21c0-1.15,0.77-1.99,1.86-1.99h10.64c9.81,0,15.26,4.55,15.26,12.44
		c0,8.08-5.32,12.69-15.58,12.69h-8.91v15.06c0,0.83-0.51,1.47-1.47,1.47h-0.45C581.32,420.95,580.87,420.44,580.87,419.48z
		 M605.23,391.85c0-6.22-4.04-9.62-11.79-9.62h-9.29v19.29h9.17C601.19,401.53,605.23,398.07,605.23,391.85z"/>
	<path fill="#FFFFFF" d="M628.31,389.8c8.33,0,13.85,5.96,13.85,14.81v0.32c0,0.9-0.38,1.09-1.35,1.09h-24.55v0.77
		c0.45,7.05,5.38,11.79,12.44,11.79c6.28,0,9.23-3.01,10.77-6.03c0.19-0.13,1.79,0.32,1.79,1.79c0,0.64-0.58,1.92-1.92,3.27
		c-1.86,1.86-5.58,3.78-10.64,3.78c-9.29,0-15.51-6.6-15.51-15.71C613.18,396.66,619.59,389.8,628.31,389.8z M628.31,392.49
		c-6.28,0-10.96,4.55-11.92,10.9h22.56C638.69,396.91,634.46,392.49,628.31,392.49z"/>
	<path fill="#FFFFFF" d="M650.68,411.98v-18.72h-3.72c-1.15,0-1.47-0.51-1.47-1.28v-0.32c0-0.77,0.32-1.22,1.47-1.22h3.72v-5.9
		c0-1.15,0.58-1.54,1.35-1.54h0.38c0.83,0,1.35,0.38,1.35,1.54v5.9h8.72c1.15,0,1.54,0.45,1.54,1.22v0.32
		c0,0.77-0.38,1.28-1.54,1.28h-8.72v18.4c0,4.94,1.54,7.05,5,7.05c2.24,0,3.91-1.09,4.94-2.63c0.13-0.13,1.03,0.32,1.03,1.6
		c0,0.51-0.26,1.22-1.03,1.92c-0.96,1.03-2.63,1.79-5.06,1.79C653.24,421.4,650.68,418.39,650.68,411.98z"/>
	<path fill="#FFFFFF" d="M683.17,389.8c8.33,0,13.85,5.96,13.85,14.81v0.32c0,0.9-0.38,1.09-1.35,1.09h-24.55v0.77
		c0.45,7.05,5.38,11.79,12.44,11.79c6.28,0,9.23-3.01,10.77-6.03c0.19-0.13,1.79,0.32,1.79,1.79c0,0.64-0.58,1.92-1.92,3.27
		c-1.86,1.86-5.58,3.78-10.64,3.78c-9.29,0-15.51-6.6-15.51-15.71C668.05,396.66,674.46,389.8,683.17,389.8z M683.17,392.49
		c-6.28,0-10.96,4.55-11.92,10.9h22.56C693.56,396.91,689.33,392.49,683.17,392.49z"/>
	<path fill="#FFFFFF" d="M719.33,392.36c0,1.22-0.77,1.73-0.9,1.67c-0.77-0.71-2.05-1.22-3.65-1.22c-5.38,0-7.95,5.38-7.95,13.53
		v13.14c0,1.09-0.58,1.47-1.41,1.47h-0.32c-0.83,0-1.41-0.38-1.41-1.47v-28.91c0-0.06,0.45-0.32,1.03-0.32
		c1.09,0,1.99,0.58,2.05,3.08v3.78c1.28-5.06,4.23-7.31,8.33-7.31C717.47,389.8,719.33,390.82,719.33,392.36z"/>
	<path fill="#FFFFFF" d="M722.27,415.37c0-1.28,1.54-1.73,1.67-1.73c1.86,2.88,5.32,5.13,10.71,5.13c5.45,0,8.65-2.44,8.65-5.83
		c0-4.1-3.78-4.94-9.36-6.15c-4.94-1.03-10.77-2.24-10.77-8.21c0-5.19,4.55-8.78,11.35-8.78c4.74,0,8.01,1.54,9.81,3.33
		c0.71,0.71,1.15,1.6,1.15,2.24c0,1.22-1.54,1.79-1.67,1.6c-1.54-2.56-5-4.55-9.29-4.55c-5.26,0-8.33,2.37-8.33,5.71
		c0,3.85,3.53,4.74,9.04,5.96c5.19,1.09,11.15,2.37,11.15,8.4c0,5.26-4.55,8.91-11.86,8.91c-5.32,0-8.91-1.67-10.77-3.53
		C722.66,416.78,722.27,416.01,722.27,415.37z"/>
	<path fill="#FFFFFF" d="M766.63,389.8c8.97,0,15.38,6.79,15.38,15.9c0,8.97-6.41,15.71-15.38,15.71c-9.1,0-15.51-6.79-15.51-15.83
		S757.53,389.8,766.63,389.8z M766.63,392.55c-7.18,0-12.37,5.58-12.37,13.01s5.19,13.08,12.37,13.08c7.05,0,12.24-5.51,12.24-12.95
		C778.87,398.26,773.74,392.55,766.63,392.55z"/>
	<path fill="#FFFFFF" d="M814.96,403.32v16.15c0,1.15-0.58,1.47-1.41,1.47h-0.38c-0.77,0-1.35-0.32-1.35-1.47v-15.96
		c0-6.67-3.27-10.77-9.17-10.77c-5.06,0-8.78,2.76-10.64,6.99v19.74c0,1.15-0.58,1.47-1.41,1.47h-0.38c-0.77,0-1.35-0.32-1.35-1.47
		v-28.91c0-0.06,0.45-0.32,1.03-0.32c1.09,0,2.05,0.58,2.05,3.08v2.76c2.05-3.72,5.83-6.28,10.83-6.28
		C810.86,389.8,814.96,395.18,814.96,403.32z"/>
	<path fill="#FFFFFF" d="M853.36,378.64c6.47,0,10.83,2.44,13.27,4.87c1.41,1.41,2.24,3.08,2.24,3.91c0,1.67-1.86,2.12-1.99,1.99
		c-2.18-4.62-7.31-7.95-13.59-7.95c-10.13,0-17.05,7.76-17.05,18.59c0,10.71,6.92,18.53,17.18,18.53c7.63,0,12.37-4.29,13.91-8.91
		c0.13-0.19,2.18,0.26,2.18,1.92c0,0.96-0.9,3.08-2.82,4.94c-2.44,2.5-7.12,4.87-13.4,4.87c-12.24,0-20.38-8.85-20.38-21.28
		C832.91,387.62,841.24,378.64,853.36,378.64z"/>
	<path fill="#FFFFFF" d="M896.04,403.13h0.64v-1.54c0-5.71-3.46-8.91-9.23-8.91c-5.26,0-8.65,2.44-10.26,5.71
		c-0.13,0-1.79-0.19-1.79-1.79c0-0.64,0.64-1.92,1.73-2.95c1.92-1.92,5.32-3.85,10.51-3.85c7.56,0,12.12,4.42,12.12,11.73v19.1
		c0,0.06-0.51,0.32-1.09,0.32c-1.09,0-1.99-0.58-1.99-3.08v-3.14c-1.99,3.91-6.47,6.67-11.99,6.67c-6.47,0-10.51-3.27-10.51-8.33
		C874.19,406.21,880.85,403.32,896.04,403.13z M896.69,405.57h-0.83c-13.14,0.26-18.46,2.37-18.46,7.5c0,3.59,2.95,5.71,7.56,5.71
		c6.54,0,11.73-4.42,11.73-10.19V405.57z"/>
	<path fill="#FFFFFF" d="M909.83,411.98v-18.72h-3.72c-1.15,0-1.47-0.51-1.47-1.28v-0.32c0-0.77,0.32-1.22,1.47-1.22h3.72v-5.9
		c0-1.15,0.58-1.54,1.35-1.54h0.38c0.83,0,1.35,0.38,1.35,1.54v5.9h8.72c1.15,0,1.54,0.45,1.54,1.22v0.32
		c0,0.77-0.38,1.28-1.54,1.28h-8.72v18.4c0,4.94,1.54,7.05,5,7.05c2.24,0,3.91-1.09,4.94-2.63c0.13-0.13,1.03,0.32,1.03,1.6
		c0,0.51-0.26,1.22-1.03,1.92c-0.96,1.03-2.63,1.79-5.06,1.79C912.39,421.4,909.83,418.39,909.83,411.98z"/>
	<path fill="#FFFFFF" d="M942.32,389.8c8.33,0,13.85,5.96,13.85,14.81v0.32c0,0.9-0.38,1.09-1.35,1.09h-24.55v0.77
		c0.45,7.05,5.38,11.79,12.44,11.79c6.28,0,9.23-3.01,10.77-6.03c0.19-0.13,1.79,0.32,1.79,1.79c0,0.64-0.58,1.92-1.92,3.27
		c-1.86,1.86-5.58,3.78-10.64,3.78c-9.29,0-15.51-6.6-15.51-15.71C927.2,396.66,933.61,389.8,942.32,389.8z M942.32,392.49
		c-6.28,0-10.96,4.55-11.92,10.9h22.56C952.71,396.91,948.48,392.49,942.32,392.49z"/>
	<path fill="#FFFFFF" d="M978.47,392.36c0,1.22-0.77,1.73-0.9,1.67c-0.77-0.71-2.05-1.22-3.65-1.22c-5.38,0-7.95,5.38-7.95,13.53
		v13.14c0,1.09-0.58,1.47-1.41,1.47h-0.32c-0.83,0-1.41-0.38-1.41-1.47v-28.91c0-0.06,0.45-0.32,1.03-0.32
		c1.09,0,1.99,0.58,2.05,3.08v3.78c1.28-5.06,4.23-7.31,8.33-7.31C976.62,389.8,978.47,390.82,978.47,392.36z"/>
	<path fill="#FFFFFF" d="M985.78,378.58c1.47,0,2.24,0.77,2.24,2.31c0,1.41-0.83,2.18-2.37,2.18c-1.35,0-2.12-0.77-2.12-2.18
		C983.54,379.35,984.31,378.58,985.78,378.58z M984.18,391.72c0-1.15,0.58-1.47,1.35-1.47h0.38c0.83,0,1.41,0.32,1.41,1.47v27.76
		c0,1.15-0.58,1.47-1.41,1.47h-0.38c-0.77,0-1.35-0.32-1.35-1.47V391.72z"/>
	<path fill="#FFFFFF" d="M1022.57,403.32v16.15c0,1.15-0.58,1.47-1.41,1.47h-0.38c-0.77,0-1.35-0.32-1.35-1.47v-15.96
		c0-6.67-3.27-10.77-9.17-10.77c-5.06,0-8.78,2.76-10.64,6.99v19.74c0,1.15-0.58,1.47-1.41,1.47h-0.38c-0.77,0-1.35-0.32-1.35-1.47
		v-28.91c0-0.06,0.45-0.32,1.03-0.32c1.09,0,2.05,0.58,2.05,3.08v2.76c2.05-3.72,5.83-6.28,10.83-6.28
		C1018.47,389.8,1022.57,395.18,1022.57,403.32z"/>
	<path fill="#FFFFFF" d="M1026.74,426.01c0-4.68,4.74-7.88,10.38-8.91c-1.35-0.64-2.31-1.6-2.31-3.21c0-1.28,0.71-2.37,1.73-3.08
		c-4.49-1.47-7.56-5.32-7.56-9.94c0-6.15,5.13-11.09,12.05-11.09c2.82,0,5.51,0.83,7.56,2.37l2.76-3.85
		c0.83-1.35,1.79-1.54,2.56-1.35c0.83,0.19,1.41,0.9,1.41,1.35l-5,5.45c1.67,1.79,2.76,4.23,2.76,6.86c0,6.09-5.19,10.9-12.18,10.9
		c-0.71,0-1.35-0.06-2.05-0.13c-0.77,0.51-1.03,1.22-1.03,1.99c0,2.31,3.27,2.63,8.53,3.91c4.68,1.09,9.68,3.21,9.68,8.08
		c0,5.64-5.64,8.85-15.19,8.85C1031.48,434.22,1026.74,431.46,1026.74,426.01z M1052.89,425.5c0-3.21-3.65-4.68-7.44-5.58
		c-1.47-0.38-2.95-0.64-4.36-1.03c-5.96,0.45-11.28,3.08-11.28,7.12c0,3.65,3.91,5.64,11.09,5.64
		C1048.34,431.66,1052.89,429.54,1052.89,425.5z M1049.82,400.76c0-4.87-3.59-8.4-8.85-8.4c-5.19,0-8.78,3.46-8.78,8.4
		c0,4.87,3.59,8.33,8.78,8.33C1046.1,409.09,1049.82,405.63,1049.82,400.76z"/>
</g>
<text transform="matrix(1 0 0 1 635.6602 358.1367)" fill="#FF0000" font-family="'OmnesLight'" font-size="41.2036px">C</text>
<text transform="matrix(1 0 0 1 662.6895 358.1367)" fill="#FF0000" font-family="'OmnesLight'" font-size="41.2036px">h</text>
<text transform="matrix(1 0 0 1 684.98 358.1367)" fill="#FF0000" font-family="'OmnesLight'" font-size="41.2036px">e</text>
<text transform="matrix(1 0 0 1 706.5698 358.1367)" fill="#FF0000" font-family="'OmnesLight'" font-size="41.2036px">f</text>
</svg>
