<?xml version="1.0" encoding="utf-8"?>
<!-- Generator: Adobe Illustrator 27.2.0, SVG Export Plug-In . SVG Version: 6.00 Build 0)  -->
<svg version="1.1" baseProfile="tiny" id="Layer_1" xmlns="http://www.w3.org/2000/svg" xmlns:xlink="http://www.w3.org/1999/xlink"
	 x="0px" y="0px" viewBox="0 0 792 612" overflow="visible" xml:space="preserve">
<g>
	<path fill="#FFFFFF" d="M23.01,187.33h43.1v1.5H24.63v43.85h39.85v1.5H24.63v45.85h-1.62V187.33z"/>
	<path fill="#FFFFFF" d="M88.34,187.33h1.62v92.69h-1.62V187.33z"/>
	<path fill="#FFFFFF" d="M112.07,278.4v0.13h55.59v1.5h-58.59l58.71-91.07v-0.13h-54.47v-1.5h57.34L112.07,278.4z"/>
	<path fill="#FFFFFF" d="M180.9,278.4v0.13h55.59v1.5H177.9l58.71-91.07v-0.13h-54.47v-1.5h57.34L180.9,278.4z"/>
</g>
<g>
	<path fill="#FFFFFF" d="M462.74,278.09h28.23c19.86,0,30.23,10.37,30.23,24.11c0,11.12-6.12,17.74-14.12,20.86
		c11.37,3.5,17.11,11.62,17.11,22.36c0,13.99-10.49,25.61-31.73,25.61h-29.73V278.09z M490.98,318.82
		c12.12,0,18.74-6.62,18.74-15.49c0-9.24-6.75-14.74-17.86-14.74h-17.61v30.23H490.98z M492.23,360.54
		c13.24,0,20.36-6.75,20.36-16.11c0-10.24-8.37-15.99-19.74-15.99h-18.61v32.1H492.23z"/>
	<path fill="#FFFFFF" d="M542.69,335.93v-57.84h11.62v58.47c0,15.62,8.87,25.36,23.24,25.36c14.62,0,24.23-9.74,24.23-25.61v-58.22
		h11.62v57.72c0,21.99-13.99,37.1-35.85,37.1C555.93,372.91,542.69,357.79,542.69,335.93z"/>
	<path fill="#FFFFFF" d="M646.62,360.17h46.1v10.87h-64.96l49.22-82.08h-45.35v-10.87h64.21L646.62,360.17z"/>
	<path fill="#FFFFFF" d="M720.44,360.17h46.1v10.87h-64.96l49.22-82.08h-45.35v-10.87h64.21L720.44,360.17z"/>
</g>
<g>
	<path fill="#FFFFFF" stroke="#FFFFFF" stroke-miterlimit="10" d="M525.56,252.67l-3.52-8.64h-10.79l-3.52,8.64h-0.43l9.16-22.5
		h0.36l9.16,22.5H525.56z M521.89,243.66l-5.25-12.95l-5.25,12.95H521.89z"/>
	<path fill="#FFFFFF" stroke="#FFFFFF" stroke-miterlimit="10" d="M547.64,252.88c-5.28,0-10.85-4.06-10.85-11.49
		c0-7.37,5.52-11.43,10.61-11.43c2.36,0,4.33,0.55,5.97,1.55v0.42c-1.61-1.06-3.61-1.61-5.97-1.61c-4.88,0-10.22,3.88-10.22,11.07
		c0,7.25,5.4,11.13,10.46,11.13c2.12,0,4.06-0.52,5.73-1.61v0.42C551.7,252.36,549.73,252.88,547.64,252.88z"/>
	<path fill="#FFFFFF" stroke="#FFFFFF" stroke-miterlimit="10" d="M556.32,244.72c0-5.06,3.61-8.16,7.4-8.16
		c3.79,0,7.4,3.09,7.4,8.16c0,5.06-3.64,8.16-7.4,8.16S556.32,249.79,556.32,244.72z M563.71,252.52c3.58,0,7-2.91,7-7.79
		c0-4.88-3.43-7.79-7-7.79c-3.58,0-7,2.91-7,7.79C556.71,249.61,560.14,252.52,563.71,252.52z"/>
	<path fill="#FFFFFF" stroke="#FFFFFF" stroke-miterlimit="10" d="M574.82,244.72c0-5.06,3.46-8.16,7.19-8.16
		c2.94,0,5.79,1.85,6.76,5.4h0.03v-13.28h0.39v23.98h-0.33l-0.03-5.28h-0.03c-0.97,3.64-3.82,5.49-6.76,5.49
		C578.3,252.88,574.82,249.79,574.82,244.72z M582.03,252.52c3.52,0,6.79-2.88,6.79-7.79c0-4.91-3.25-7.79-6.82-7.79
		c-3.52,0-6.79,2.91-6.79,7.79C575.21,249.61,578.52,252.52,582.03,252.52z"/>
	<path fill="#FFFFFF" stroke="#FFFFFF" stroke-miterlimit="10" d="M595.59,230.11c0.3,0,0.55,0.24,0.55,0.55s-0.24,0.55-0.55,0.55
		c-0.3,0-0.55-0.24-0.55-0.55S595.29,230.11,595.59,230.11z M595.38,236.78h0.39v15.89h-0.39V236.78z"/>
	<path fill="#FFFFFF" stroke="#FFFFFF" stroke-miterlimit="10" d="M613.3,241.97v10.7h-0.39v-10.7c0-3.18-1.97-5.03-5-5.03
		c-2.94,0-5.55,1.7-5.55,4.94v10.79h-0.39v-15.89h0.33l0.03,3.24h0.03c0.82-2.24,2.97-3.46,5.55-3.46
		C611.15,236.57,613.3,238.6,613.3,241.97z"/>
	<path fill="#FFFFFF" stroke="#FFFFFF" stroke-miterlimit="10" d="M631.71,241.94h0.03l0.03-5.15h0.33v16.07
		c0,5.09-3.15,6.7-6.64,6.7c-1.97,0-4.15-0.33-6.09-1.76v-0.46c1.91,1.46,4.15,1.85,6.09,1.85c3.28,0,6.25-1.42,6.25-6.34v-5.64
		h-0.03c-0.94,3.46-3.73,5.28-6.61,5.28c-3.67,0-7.09-3.03-7.09-7.94c0-4.94,3.4-7.97,7.06-7.97
		C627.92,236.57,630.77,238.39,631.71,241.94z M625.07,252.12c3.46,0,6.67-2.82,6.67-7.58c0-4.79-3.18-7.61-6.7-7.61
		c-3.46,0-6.67,2.85-6.67,7.61C618.37,249.27,621.61,252.12,625.07,252.12z"/>
	<path fill="#FFFFFF" stroke="#FFFFFF" stroke-miterlimit="10" d="M648,230.17h4.28c4.64,0,7.76,2.4,7.76,6.55
		c0,4.31-3.09,6.76-7.79,6.76h-3.85v9.19H648V230.17z M652.24,243.12c4.49,0,7.4-2.27,7.4-6.4c0-3.97-2.94-6.19-7.37-6.19h-3.88
		v12.58H652.24z"/>
	<path fill="#FFFFFF" stroke="#FFFFFF" stroke-miterlimit="10" d="M664.5,236.78h0.33l0.03,3.49h0.03c0.76-2.34,2.82-3.61,4.76-3.61
		c0.27,0,0.7,0.03,0.94,0.06v0.36c-0.21-0.03-0.61-0.06-0.94-0.06c-2.24,0-4.64,1.79-4.76,4.91v10.73h-0.39V236.78z"/>
	<path fill="#FFFFFF" stroke="#FFFFFF" stroke-miterlimit="10" d="M671.84,244.72c0-5.06,3.61-8.16,7.4-8.16
		c3.79,0,7.4,3.09,7.4,8.16c0,5.06-3.64,8.16-7.4,8.16S671.84,249.79,671.84,244.72z M679.24,252.52c3.58,0,7-2.91,7-7.79
		c0-4.88-3.43-7.79-7-7.79c-3.58,0-7,2.91-7,7.79C672.23,249.61,675.66,252.52,679.24,252.52z"/>
	<path fill="#FFFFFF" stroke="#FFFFFF" stroke-miterlimit="10" d="M691.64,251.21v-14.43h0.39v14.43c0,3.82-0.97,6.22-2.52,8.13
		h-0.52C690.73,257.4,691.64,254.85,691.64,251.21z M691.85,230.11c0.3,0,0.55,0.24,0.55,0.55s-0.24,0.55-0.55,0.55
		c-0.3,0-0.55-0.24-0.55-0.55S691.55,230.11,691.85,230.11z"/>
	<path fill="#FFFFFF" stroke="#FFFFFF" stroke-miterlimit="10" d="M697.04,244.72c0-5.06,3.46-8.16,7.16-8.16
		c3.37,0,6.43,2.61,6.43,7.79c0,0.18-0.03,0.39-0.03,0.39h-13.16c0,4.91,3.03,7.76,7.03,7.76c2.06,0,4.18-0.7,5.91-2.3v0.46
		c-1.73,1.49-3.88,2.21-5.91,2.21C700.26,252.88,697.04,249.85,697.04,244.72z M710.23,244.39c0-5-2.88-7.46-6.03-7.46
		c-3.4,0-6.61,2.79-6.76,7.46H710.23z"/>
	<path fill="#FFFFFF" stroke="#FFFFFF" stroke-miterlimit="10" d="M721.76,252.52c1.18,0,2.82-0.27,4.25-1.27v0.45
		c-1.42,0.91-3.03,1.18-4.25,1.18c-4,0-7.49-3.27-7.49-8.16c0-4.79,3.4-8.16,7.43-8.16c1.18,0,2.79,0.24,4.31,1.12v0.42
		c-1.52-0.94-3.15-1.18-4.31-1.18c-3.82,0-7.03,3.18-7.03,7.79C714.66,249.42,717.94,252.52,721.76,252.52z"/>
	<path fill="#FFFFFF" stroke="#FFFFFF" stroke-miterlimit="10" d="M731.25,236.78h4.85v0.36h-4.85v11.01c0,3.27,1.73,4.34,4.12,4.34
		c0.46,0,0.82-0.03,1.24-0.12v0.36c-0.24,0.06-0.76,0.12-1.27,0.12c-2.58,0-4.49-1.24-4.49-4.64v-11.07h-2.46v-0.36h2.46v-3.79h0.39
		V236.78z"/>
</g>
<path fill="#FFFFFF" d="M295.15,265.03h111.48c4.39,0,8.36-1.79,11.25-4.69c2.9-2.9,4.69-6.87,4.69-11.25
	c0-4.43-1.79-8.39-4.69-11.29c-2.9-2.9-6.87-4.69-11.25-4.69h-11.9h-87.67h-11.9c-4.39,0-8.35,1.79-11.25,4.69
	s-4.69,6.87-4.69,11.29c0,4.39,1.79,8.35,4.69,11.25C286.79,263.23,290.76,265.03,295.15,265.03L295.15,265.03z M499.9,177.93h6.29
	c3.2,0,5.8,2.63,5.8,5.8l0,0c0,3.21-2.59,5.8-5.8,5.8h-6.29c-3.17,0-5.8-2.59-5.8-5.8l0,0C494.1,180.56,496.74,177.93,499.9,177.93
	L499.9,177.93z M467.32,247.52h6.29c3.17,0,5.8,2.59,5.8,5.8l0,0c0,3.16-2.63,5.8-5.8,5.8h-6.29c-3.2,0-5.8-2.63-5.8-5.8l0,0
	C461.52,250.11,464.12,247.52,467.32,247.52L467.32,247.52z M433.22,247.52h6.87c3.96,0,6.71,2.59,6.71,5.8l0,0
	c0,3.16-2.63,5.8-5.8,5.8h-8.74c-3.17,0-5.8,2.59-5.8,5.8l0,0c0,3.17,2.63,5.8,5.8,5.8h5.07c0.99,0.73,1.95,1.56,2.82,2.44
	c4.96,4.96,8.09,11.87,8.09,19.46c0,7.59-3.13,14.5-8.09,19.49c-5,4.96-11.9,8.09-19.49,8.09h-3.51c3.24,4.5,5.11,10.03,5.11,15.98
	c0,7.55-3.09,14.46-8.09,19.46c-5,5-11.87,8.09-19.46,8.09h-87.67c-7.59,0-14.46-3.09-19.46-8.09s-8.09-11.9-8.09-19.46
	c0-5.95,1.91-11.48,5.11-15.98h-3.51c-7.59,0-14.5-3.13-19.46-8.09c-5-5-8.13-11.9-8.13-19.49c0-7.59,3.13-14.5,8.13-19.46
	c3.24-3.28,7.33-5.72,11.87-7.06c-3.7-4.69-5.91-10.61-5.91-17.02c0-7.59,3.09-14.5,8.09-19.49c2.86-2.86,6.33-5.08,10.19-6.49
	c-3.97-4.77-6.37-10.91-6.37-17.59c0-7.59,3.09-14.5,8.09-19.5c5-4.96,11.86-8.09,19.46-8.09c55.51,0,111.02,0,166.57,0
	c3.17,0,5.8,2.63,5.8,5.8l0,0c0,3.21-2.63,5.8-5.8,5.8h-56.46c-3.21,0-5.8,2.63-5.8,5.8l0,0c0,3.2,2.59,5.8,5.8,5.8h45.59
	c3.17,0,5.8,2.59,5.8,5.8l0,0c0,3.2-2.63,5.8-5.8,5.8h-43.99c-3.2,0-5.8,2.59-5.8,5.8l0,0c0,3.2,2.59,5.8,5.8,5.8h33.11
	c3.17,0,5.8,2.59,5.8,5.8l0,0c0,3.16-2.63,5.8-5.8,5.8h-3.55h-17.51c-3.17,0-5.8,2.59-5.8,5.8l0,0c0,3.16,2.63,5.8,5.8,5.8H433.22z
	 M478.2,224.32h6.26c3.21,0,5.8,2.59,5.8,5.8l0,0c0,3.16-2.59,5.8-5.8,5.8h-6.26c-3.2,0-5.8-2.63-5.8-5.8l0,0
	C472.4,226.92,474.99,224.32,478.2,224.32L478.2,224.32z M489.03,201.13h6.29c3.21,0,5.8,2.59,5.8,5.8l0,0c0,3.2-2.59,5.8-5.8,5.8
	h-6.29c-3.17,0-5.8-2.59-5.8-5.8l0,0C483.23,203.72,485.86,201.13,489.03,201.13L489.03,201.13z M307.05,320.19
	c-4.39,0-8.36,1.79-11.25,4.69s-4.69,6.91-4.69,11.29c0,4.39,1.79,8.35,4.69,11.25s6.87,4.69,11.25,4.69h87.67
	c4.39,0,8.36-1.8,11.25-4.69s4.69-6.87,4.69-11.25c0-4.39-1.79-8.39-4.69-11.29s-6.87-4.69-11.25-4.69H307.05z M394.72,189.53
	h-87.67c-4.39,0-8.36,1.79-11.25,4.69s-4.69,6.91-4.69,11.29s1.79,8.39,4.69,11.29s6.87,4.69,11.25,4.69h87.67
	c4.39,0,8.36-1.79,11.25-4.69s4.69-6.91,4.69-11.29s-1.79-8.39-4.69-11.29S399.11,189.53,394.72,189.53L394.72,189.53z
	 M420.66,276.63h-14.04H295.15h-14.04c-4.39,0-8.39,1.79-11.29,4.69c-2.9,2.9-4.69,6.91-4.69,11.29c0,4.39,1.79,8.39,4.69,11.29
	c2.9,2.9,6.91,4.69,11.29,4.69h25.94h87.67h25.94c4.39,0,8.39-1.79,11.29-4.69s4.69-6.91,4.69-11.29c0-4.39-1.79-8.39-4.69-11.29
	C429.06,278.42,425.05,276.63,420.66,276.63L420.66,276.63z"/>
<path fill-rule="evenodd" fill="#FFCD05" d="M367.69,302.38h52.47c2.66,0,5.18-1.1,7.05-3.01c1.87-1.91,2.96-4.47,2.96-7.19
	c0-2.71-1.08-5.28-2.96-7.22c-1.87-1.91-4.39-2.98-7.05-2.98h-7.2c-13.96,0-4.89-20.82,0.44-26.25c1.87-1.91,2.96-4.47,2.96-7.19
	c0-2.72-1.08-5.28-2.96-7.19c-1.87-1.94-4.39-3.01-7.05-3.01h-64.14c-16.12,0-16.12-23.24,0-23.24h52.44c2.66,0,5.18-1.1,7.05-3.01
	c1.87-1.91,2.96-4.47,2.96-7.19c0-2.72-1.08-5.28-2.96-7.19c-1.87-1.94-4.39-3.01-7.05-3.01H308.5c-2.66,0-5.18,1.07-7.05,3.01
	c-1.9,1.91-2.96,4.47-2.96,7.19c0,2.72,1.05,5.28,2.96,7.19c1.87,1.91,4.39,3.01,7.05,3.01c15.92,0,15.92,23.24,0,23.24h-11.7
	c-2.66,0-5.18,1.07-7.05,3.01c-1.87,1.91-2.96,4.47-2.96,7.19c0,2.72,1.08,5.28,2.96,7.19c1.87,1.91,4.39,3.01,7.05,3.01h86.58
	c16.27,0,16.71,23.24,1,23.24H282.98c-2.66,0-5.18,1.07-7.05,2.98c-1.87,1.94-2.96,4.51-2.96,7.22c0,2.72,1.08,5.28,2.96,7.19
	c1.87,1.91,4.39,3.01,7.05,3.01h20.51c13.81,0,11.38,21.96,3.31,23.36c-2.02,0.36-3.89,1.37-5.35,2.86
	c-1.9,1.94-2.96,4.51-2.96,7.22c0,2.72,1.05,5.28,2.96,7.19c1.87,1.91,4.39,3.01,7.05,3.01h71.02c7.35,0,5.91,13.39,3.86,18.41
	c-8.19,19.93,18.58,19.93,10.42,0c-1.99-4.83-3.83-17,3.13-18.7c1.78-0.42,3.45-1.37,4.77-2.72c1.87-1.91,2.96-4.47,2.96-7.19
	c0-2.71-1.08-5.28-2.96-7.22c-1.87-1.91-4.39-2.98-7.05-2.98h-50.15c-13.2,0-17.57-23.01-8.77-23.01c5.57,0,8.82,0,15.44,0
	C358.59,302.61,362.22,302.61,367.69,302.38L367.69,302.38z"/>
</svg>
